<svg width="256" height="256" viewBox="0 0 256 256" fill="none" xmlns="http://www.w3.org/2000/svg">
<path d="M80.256 74.952C79.4027 74.8667 78.8907 71.752 78.72 65.608C79.0613 63.9013 79.744 61.6827 80.768 58.952C81.792 56.136 83.2427 52.8507 85.12 49.096C85.632 48.9253 86.016 48.84 86.272 48.84C87.808 48.84 88.576 50.4187 88.576 53.576C87.7227 54.9413 86.8693 56.3493 86.016 57.8C85.1627 59.1653 84.352 60.5307 83.584 61.896C81.28 66.3333 80.1707 70.6853 80.256 74.952ZM44.288 158.92C31.232 158.92 21.12 155.805 13.952 149.576C8.064 144.285 5.12 137.544 5.12 129.352C5.12 120.136 8.91733 112.627 16.512 106.824C23.3387 101.533 31.1467 98.8453 39.936 98.76C47.2747 98.76 53.0347 100.637 57.216 104.392C60.8853 107.805 62.72 111.987 62.72 116.936C62.72 121.971 60.928 126.28 57.344 129.864C53.248 133.789 48.0427 135.752 41.728 135.752C40.96 135.752 40.576 135.624 40.576 135.368C40.576 134.856 40.96 134.557 41.728 134.472C44.4587 133.875 46.8907 133.021 49.024 131.912C51.2427 130.803 53.12 129.352 54.656 127.56C57.5573 124.403 59.008 120.733 59.008 116.552C59.008 111.944 57.344 108.189 54.016 105.288C50.6027 102.131 46.08 100.552 40.448 100.552C32.768 100.552 26.0267 103.069 20.224 108.104C13.9093 113.395 10.752 120.136 10.752 128.328C10.752 136.349 13.184 142.792 18.048 147.656C23.68 153.629 32.128 156.616 43.392 156.616C54.4 156.616 63.616 153.331 71.04 146.76C79.1467 139.763 83.2 130.931 83.2 120.264C83.2 112.499 80.2133 105.117 74.24 98.12L60.288 83.784C57.728 81.1387 55.8507 78.536 54.656 75.976C53.5467 73.3307 52.992 70.8133 52.992 68.424C52.992 63.1333 55.04 58.9093 59.136 55.752C63.0613 52.5947 67.6267 51.016 72.832 51.016C74.88 51.016 76.928 51.3147 78.976 51.912C81.024 52.5093 82.048 53.2347 82.048 54.088C82.048 54.5147 81.792 54.728 81.28 54.728C81.024 54.728 80 54.344 78.208 53.576C76.7573 52.9787 75.264 52.68 73.728 52.68C69.888 52.68 66.4747 54.088 63.488 56.904C60.5867 59.8053 59.136 63.1333 59.136 66.888C59.136 71.1547 61.1413 75.4213 65.152 79.688L78.208 91.848C82.3893 95.688 85.4613 99.8693 87.424 104.392C89.472 108.829 90.496 113.523 90.496 118.472C90.496 129.907 85.5893 139.635 75.776 147.656C66.56 155.165 56.064 158.92 44.288 158.92ZM75.136 116.936C74.7093 117.107 74.496 116.851 74.496 116.168C73.8987 111.987 72.192 107.72 69.376 103.368C69.2053 104.648 68.9493 106.099 68.608 107.72C66.9867 107.976 65.536 107.421 64.256 106.056C64.0853 105.8 63.872 105.416 63.616 104.904C63.4453 104.392 63.36 103.795 63.36 103.112V102.216C63.36 101.277 63.488 100.637 63.744 100.296C65.536 101.576 67.0293 102.088 68.224 101.832C66.2613 99.016 64 96.456 61.44 94.152C58.88 91.7627 56.1067 89.6293 53.12 87.752C46.8907 83.9973 41.3867 82.12 36.608 82.12C31.488 82.12 27.9467 84.2533 25.984 88.52C26.9227 87.8373 27.8613 87.496 28.8 87.496C29.824 87.496 30.8053 87.7947 31.744 88.392C33.4507 89.5867 34.2613 90.952 34.176 92.488C33.0667 91.976 31.872 91.72 30.592 91.72C28.2027 91.72 26.4533 92.744 25.344 94.792C24.4053 93.3413 23.936 92.104 23.936 91.08C23.936 89.8 24.5333 88.2213 25.728 86.344C28.2027 82.248 32.0427 80.2 37.248 80.2C45.0133 80.2 53.0347 84.04 61.312 91.72C65.5787 95.4747 69.0347 99.3573 71.68 103.368C74.3253 107.293 75.648 111.389 75.648 115.656V116.04C75.648 116.467 75.4773 116.765 75.136 116.936Z" fill="white"/>
<path d="M109.353 202.69C106.793 202.69 104.233 200.983 101.673 197.57C99.3693 194.669 98.2173 191.767 98.2173 188.866C98.2173 186.647 98.7293 184.599 99.7533 182.722C104.276 175.383 111.828 171.714 122.409 171.714C123.604 171.714 124.841 171.757 126.121 171.842C127.401 171.927 128.639 172.055 129.833 172.226C132.308 169.239 134.825 165.997 137.385 162.498C139.945 158.999 142.591 155.287 145.321 151.362L143.145 152.642C142.207 151.789 141.737 150.722 141.737 149.442C141.737 148.93 141.78 148.503 141.865 148.162C142.036 147.394 142.633 146.498 143.657 145.474C144.767 144.365 145.663 143.853 146.345 143.938C146.431 145.986 146.857 147.394 147.625 148.162C148.905 146.37 150.057 144.706 151.081 143.17C152.191 141.549 153.172 140.055 154.025 138.69C155.988 135.703 157.993 132.29 160.041 128.45C162.175 124.61 164.436 120.343 166.825 115.65C159.657 113.687 153.684 112.279 148.905 111.426C144.212 110.487 140.713 110.018 138.409 110.018C136.361 110.018 134.356 110.146 132.393 110.402C130.772 110.743 129.193 111.255 127.657 111.938C126.121 112.621 124.713 113.431 123.433 114.37C120.361 116.333 118.911 118.679 119.081 121.41C119.167 121.495 119.721 121.453 120.745 121.282C121.769 121.026 122.879 120.77 124.073 120.514C125.353 120.173 126.249 119.959 126.761 119.874C128.212 119.447 129.62 119.149 130.985 118.978C132.351 118.722 133.631 118.551 134.825 118.466C140.969 119.49 143.999 120.471 143.913 121.41C142.548 121.154 141.183 121.026 139.817 121.026C138.196 121.026 136.489 121.197 134.697 121.538C132.905 121.879 131.071 122.477 129.193 123.33L121.641 126.658C118.74 125.634 117.289 124.738 117.289 123.97C117.289 123.458 117.417 123.031 117.673 122.69L117.417 120.386C117.844 115.693 120.105 111.981 124.201 109.25C126.164 107.885 128.34 106.861 130.729 106.178C133.119 105.41 135.721 105.026 138.537 105.026C144.425 105.026 154.751 106.903 169.513 110.658C171.22 107.245 172.671 104.13 173.865 101.314C175.145 98.4979 176.212 95.9806 177.065 93.7619C177.407 92.6526 178.26 92.0979 179.625 92.0979C180.052 92.0979 180.18 92.3539 180.009 92.8659C179.412 95.8526 176.639 101.954 171.689 111.17C173.567 111.597 175.273 112.023 176.809 112.45C178.431 112.791 179.924 113.09 181.289 113.346C189.481 105.069 197.076 100.93 204.073 100.93C208.511 100.93 210.729 102.722 210.729 106.306C210.729 108.525 209.663 110.701 207.529 112.834C206.42 114.029 205.012 115.053 203.305 115.906C201.684 116.674 199.849 117.357 197.801 117.954C195.412 118.551 192.895 118.978 190.249 119.234C187.689 119.405 185.044 119.405 182.313 119.234C180.948 120.855 178.217 124.439 174.121 129.986C170.025 135.447 164.692 142.871 158.121 152.258C154.708 157.378 148.82 165.186 140.457 175.682L141.481 176.194C152.575 181.741 162.431 185.794 171.049 188.354C179.753 190.829 187.135 192.066 193.193 192.066C200.361 192.066 203.945 189.719 203.945 185.026C203.945 183.405 203.263 181.698 201.897 179.906C200.617 177.943 199.977 177.047 199.977 177.218C199.977 176.962 200.148 176.834 200.489 176.834C201.855 176.834 203.049 178.157 204.073 180.802C204.5 181.655 204.756 182.551 204.841 183.49C205.012 184.343 205.097 185.154 205.097 185.922C205.097 192.919 199.551 196.418 188.457 196.418C182.996 196.418 176.297 195.266 168.361 192.962C160.425 190.743 151.295 187.33 140.969 182.722C140.116 182.295 139.263 181.954 138.409 181.698C137.641 181.357 136.831 181.015 135.977 180.674C126.249 190.829 117.46 195.906 109.609 195.906C106.623 195.906 105.129 195.607 105.129 195.01C105.129 194.583 105.428 194.37 106.025 194.37C106.452 194.37 107.007 194.413 107.689 194.498C108.372 194.583 108.884 194.626 109.225 194.626C116.735 194.626 125.012 189.719 134.057 179.906C132.948 179.479 131.839 179.095 130.729 178.754C129.62 178.413 128.596 178.114 127.657 177.858C119.295 187.757 113.833 192.706 111.273 192.706C110.676 192.706 110.377 192.493 110.377 192.066C110.377 191.554 110.633 191.17 111.145 190.914C114.559 189.207 119.423 184.685 125.737 177.346C123.86 176.919 122.068 176.621 120.361 176.45C118.655 176.194 116.948 176.066 115.241 176.066C104.745 176.066 99.4973 179.906 99.4973 187.586C99.4973 191.17 100.948 194.327 103.849 197.058C106.751 199.533 110.207 201.282 114.217 202.306C114.388 202.306 114.559 202.391 114.729 202.562C114.729 202.562 114.644 202.562 114.473 202.562C114.303 202.647 114.004 202.69 113.577 202.69C113.151 202.69 112.553 202.647 111.785 202.562C111.017 202.477 110.463 202.434 110.121 202.434C109.865 202.434 109.695 202.477 109.609 202.562C109.524 202.647 109.439 202.69 109.353 202.69ZM189.737 114.242C191.103 114.242 192.553 114.157 194.089 113.986C195.625 113.815 197.204 113.559 198.825 113.218C205.055 112.109 208.169 109.591 208.169 105.666C208.169 103.874 207.103 102.978 204.969 102.978C202.836 102.978 200.02 104.13 196.521 106.434C194.729 107.629 193.023 108.866 191.401 110.146C189.865 111.341 188.415 112.663 187.049 114.114C187.476 114.114 187.903 114.157 188.329 114.242C188.841 114.242 189.311 114.242 189.737 114.242ZM138.409 174.786C140.372 172.311 142.676 169.197 145.321 165.442C148.052 161.687 150.996 157.25 154.153 152.13L164.137 135.874C166.356 132.205 168.532 128.919 170.665 126.018C172.884 123.117 174.932 120.514 176.809 118.21C175.7 117.954 174.463 117.655 173.097 117.314C171.817 116.973 170.452 116.631 169.001 116.29C166.356 121.069 163.924 125.378 161.705 129.218C159.487 133.058 157.396 136.471 155.433 139.458C151.764 145.346 147.924 151.063 143.913 156.61C139.988 162.071 135.977 167.405 131.881 172.61C132.991 172.951 134.057 173.293 135.081 173.634C136.191 173.975 137.3 174.359 138.409 174.786Z" fill="white"/>
</svg>
